<svg width="52" height="64" viewBox="0 0 52 64" fill="none" xmlns="http://www.w3.org/2000/svg">
<g filter="url(#filter0_d_9_9)">
<path d="M36.6667 42.6667C42.5577 42.6667 47.3333 37.8911 47.3333 32C47.3333 26.109 42.5577 21.3334 36.6667 21.3334C30.7756 21.3334 26 26.109 26 32C26 37.8911 30.7756 42.6667 36.6667 42.6667Z" fill="#19BCFE"/>
<path fill-rule="evenodd" clip-rule="evenodd" d="M15.3334 64C18.1624 64 20.8755 62.8761 22.8759 60.8758C24.8762 58.8754 26 56.1623 26 53.3333V42.6666H15.3334C12.5044 42.6666 9.7913 43.7904 7.79091 45.7908C5.79052 47.7912 4.66672 50.5043 4.66672 53.3333C4.66672 56.1623 5.79052 58.8754 7.79091 60.8758C9.7913 62.8761 12.5044 64 15.3334 64Z" fill="#09CF83"/>
<path fill-rule="evenodd" clip-rule="evenodd" d="M15.3334 42.6667H26V21.3334H15.3334C12.5044 21.3334 9.7913 22.4572 7.79091 24.4576C5.79052 26.458 4.66672 29.1711 4.66672 32C4.66672 34.829 5.79052 37.5421 7.79091 39.5425C9.7913 41.5429 12.5044 42.6667 15.3334 42.6667Z" fill="#A259FF"/>
<path fill-rule="evenodd" clip-rule="evenodd" d="M15.3334 21.3333H26V0H15.3334C12.5044 0 9.7913 1.12381 7.79091 3.12419C5.79052 5.12458 4.66672 7.83769 4.66672 10.6667C4.66672 13.4956 5.79052 16.2088 7.79091 18.2091C9.7913 20.2095 12.5044 21.3333 15.3334 21.3333Z" fill="#F24E1E"/>
<path fill-rule="evenodd" clip-rule="evenodd" d="M36.6667 21.3333H26V0H36.6667C39.4956 0 42.2087 1.12381 44.2091 3.12419C46.2095 5.12458 47.3333 7.83769 47.3333 10.6667C47.3333 13.4956 46.2095 16.2088 44.2091 18.2091C42.2087 20.2095 39.4956 21.3333 36.6667 21.3333Z" fill="#FF7262"/>
</g>
<defs>
<filter id="filter0_d_9_9" x="0.666718" y="0" width="50.6666" height="72" filterUnits="userSpaceOnUse" color-interpolation-filters="sRGB">
<feFlood flood-opacity="0" result="BackgroundImageFix"/>
<feColorMatrix in="SourceAlpha" type="matrix" values="0 0 0 0 0 0 0 0 0 0 0 0 0 0 0 0 0 0 127 0" result="hardAlpha"/>
<feOffset dy="4"/>
<feGaussianBlur stdDeviation="2"/>
<feComposite in2="hardAlpha" operator="out"/>
<feColorMatrix type="matrix" values="0 0 0 0 0 0 0 0 0 0 0 0 0 0 0 0 0 0 0.25 0"/>
<feBlend mode="normal" in2="BackgroundImageFix" result="effect1_dropShadow_9_9"/>
<feBlend mode="normal" in="SourceGraphic" in2="effect1_dropShadow_9_9" result="shape"/>
</filter>
</defs>
</svg>
