<svg width="46" height="46" viewBox="0 0 46 46" fill="none" xmlns="http://www.w3.org/2000/svg">
<g filter="url(#filter0_d_71_1)">
<rect x="4" width="38" height="38" rx="8" fill="#FF6E30"/>
<path fill-rule="evenodd" clip-rule="evenodd" d="M23.9645 12.4359C23.632 12.4359 23.3089 12.4769 23 12.5542C23.1988 10.7606 23.9148 9.12398 24.9963 7.79492C29.2971 8.30464 32.6332 11.9646 32.6332 16.4029V22.7294C32.4605 22.7391 32.2864 22.744 32.1112 22.744C28.6706 22.744 25.6709 20.8483 24.1028 18.0423H27.9315V16.4029C27.9315 14.212 26.1554 12.4359 23.9645 12.4359Z" fill="white"/>
<path fill-rule="evenodd" clip-rule="evenodd" d="M13.2564 16.9507C13.2564 11.625 17.5738 7.30762 22.8995 7.30762C25.5623 7.30762 27.9731 8.38695 29.7182 10.132C28.1095 8.52336 25.9351 7.48044 23.5191 7.32724C21.894 9.12575 20.9044 11.5095 20.9044 14.1243C20.9044 14.3194 20.9099 14.5131 20.9208 14.7055C20.299 15.2538 19.9068 16.0565 19.9068 16.9507V17.6157H25.8922L21.5214 17.6158C22.9445 21.4968 26.672 24.2661 31.0462 24.2661C31.5546 24.2661 32.0543 24.2287 32.5425 24.1565V28.2563H25.8922V24.2661H19.9068V28.2563H13.2564V20.9409V16.9507Z" fill="white"/>
</g>
<defs>
<filter id="filter0_d_71_1" x="0" y="0" width="46" height="46" filterUnits="userSpaceOnUse" color-interpolation-filters="sRGB">
<feFlood flood-opacity="0" result="BackgroundImageFix"/>
<feColorMatrix in="SourceAlpha" type="matrix" values="0 0 0 0 0 0 0 0 0 0 0 0 0 0 0 0 0 0 127 0" result="hardAlpha"/>
<feOffset dy="4"/>
<feGaussianBlur stdDeviation="2"/>
<feComposite in2="hardAlpha" operator="out"/>
<feColorMatrix type="matrix" values="0 0 0 0 0 0 0 0 0 0 0 0 0 0 0 0 0 0 0.25 0"/>
<feBlend mode="normal" in2="BackgroundImageFix" result="effect1_dropShadow_71_1"/>
<feBlend mode="normal" in="SourceGraphic" in2="effect1_dropShadow_71_1" result="shape"/>
</filter>
</defs>
</svg>
